<?xml version="1.0" standalone="no"?>
<!DOCTYPE svg PUBLIC "-//W3C//DTD SVG 20010904//EN"
 "http://www.w3.org/TR/2001/REC-SVG-20010904/DTD/svg10.dtd">
<svg version="1.0" xmlns="http://www.w3.org/2000/svg"
 width="16.000000pt" height="16.000000pt" viewBox="0 0 16.000000 16.000000"
 preserveAspectRatio="xMidYMid meet">

<g transform="translate(0.000000,16.000000) scale(0.100000,-0.100000)"
fill="#000000" stroke="none">
<path d="M0 80 l0 -80 80 0 80 0 0 80 0 80 -80 0 -80 0 0 -80z m140 34 c0 -2
-12 2 -27 10 -60 31 -114 -39 -60 -78 22 -16 22 -16 -5 -4 -22 9 -28 18 -28
43 0 26 6 34 33 47 28 13 36 14 60 2 15 -8 27 -17 27 -20z m-32 -27 c4 -20
-25 -34 -40 -19 -15 15 -1 44 19 40 10 -2 19 -11 21 -21z m32 -32 c0 -2 -13
-11 -30 -20 -38 -19 -40 -11 -2 9 31 17 32 18 32 11z"/>
</g>
</svg>
