<?xml version="1.0" standalone="no"?>
<!DOCTYPE svg PUBLIC "-//W3C//DTD SVG 20010904//EN"
 "http://www.w3.org/TR/2001/REC-SVG-20010904/DTD/svg10.dtd">
<svg version="1.0" xmlns="http://www.w3.org/2000/svg"
 width="60.000000pt" height="60.000000pt" viewBox="0 0 60.000000 60.000000"
 preserveAspectRatio="xMidYMid meet">
<metadata>
Created by potrace 1.16, written by Peter Selinger 2001-2019
</metadata>
<g transform="translate(0.000000,60.000000) scale(0.100000,-0.100000)"
fill="#000000" stroke="none">
<path d="M1 483 c1 -108 2 -115 14 -83 7 19 16 44 20 54 6 15 5 17 -5 11 -9
-6 -11 -4 -6 4 5 7 11 10 14 6 8 -7 92 76 86 86 -2 4 1 11 7 15 8 5 9 3 4 -6
-6 -10 -4 -11 11 -5 10 4 35 13 54 20 32 12 25 13 -83 14 l-117 1 1 -117z
m109 74 c0 -2 -17 -19 -37 -38 l-38 -34 34 38 c33 34 41 42 41 34z"/>
<path d="M400 585 c19 -7 44 -16 54 -20 15 -6 17 -5 11 5 -6 9 -4 11 4 6 7 -5
10 -11 6 -14 -7 -8 76 -92 86 -86 4 2 11 -1 15 -7 5 -8 3 -9 -6 -4 -10 6 -11
4 -5 -11 4 -10 13 -35 20 -54 12 -32 13 -25 14 83 l1 117 -117 -1 c-108 -1
-115 -2 -83 -14z m130 -60 c19 -19 32 -35 29 -35 -3 0 -20 16 -39 35 -19 19
-32 35 -29 35 3 0 20 -16 39 -35z"/>
<path d="M150 315 c0 -70 3 -86 18 -94 16 -9 16 -10 0 -16 -30 -12 -21 -22 57
-65 l75 -41 76 42 c68 37 74 43 61 57 -14 13 -21 11 -71 -17 -31 -17 -59 -31
-63 -31 -5 0 -7 38 -5 84 l3 84 -70 41 c-38 23 -72 41 -75 41 -3 0 -6 -38 -6
-85z m130 -151 c0 -2 -9 0 -20 6 -11 6 -20 13 -20 16 0 2 9 0 20 -6 11 -6 20
-13 20 -16z"/>
<path d="M1 117 l-1 -117 117 1 c108 1 115 2 83 14 -19 7 -44 16 -54 20 -15 6
-17 5 -11 -5 5 -9 4 -11 -4 -6 -6 4 -9 11 -7 15 6 10 -78 93 -86 86 -3 -4 -9
-1 -14 6 -5 8 -3 10 6 4 10 -6 11 -4 5 11 -4 10 -13 35 -20 54 -12 32 -13 25
-14 -83z m79 -42 c19 -19 32 -35 29 -35 -3 0 -20 16 -39 35 -19 19 -32 35 -29
35 3 0 20 -16 39 -35z"/>
<path d="M584 198 c-6 -18 -15 -42 -19 -52 -6 -15 -5 -17 5 -11 9 5 11 4 6 -4
-4 -6 -11 -9 -15 -7 -10 6 -93 -78 -86 -86 4 -3 1 -9 -6 -14 -8 -5 -10 -3 -4
6 6 10 4 11 -11 5 -10 -4 -35 -13 -54 -20 -32 -12 -25 -13 83 -14 l117 -1 -1
115 c0 63 -2 115 -2 115 -1 0 -7 -15 -13 -32z m-24 -91 c0 -2 -17 -19 -37 -38
l-38 -34 34 38 c33 34 41 42 41 34z"/>
</g>
</svg>
